<?xml version="1.0" encoding="UTF-8"?>
<svg width="16px" height="14px" viewBox="0 0 16 14" version="1.1" xmlns="http://www.w3.org/2000/svg" xmlns:xlink="http://www.w3.org/1999/xlink">
    <!-- Generator: sketchtool 53.2 (72643) - https://sketchapp.com -->
    <title>4A72101E-8AF3-429E-92C7-D4EAEE9AA7B3</title>
    <desc>Created with sketchtool.</desc>
    <defs>
        <polygon id="path-1" points="0 44 44 44 44 0 0 0"></polygon>
    </defs>
    <g id="Page-1" stroke="none" stroke-width="1" fill="none" fill-rule="evenodd">
        <g id="Sales-leads" transform="translate(-58.000000, -14.000000)">
            <g id="menubar/desktop/default" transform="translate(0.000000, -1.000000)">
                <g id="Dashboards" transform="translate(44.000000, 0.000000)">
                    <g id="icons/Dashboard/gray-700" transform="translate(12.000000, 12.000000)">
                        <g id="Dashboard">
                            <rect id="BoundingBox" x="0" y="0" width="20" height="20"></rect>
                            <g id="Shape" transform="translate(2.578125, 3.359375)" fill="#FFFFFF">
                                <path d="M13.796875,0.890625 C13.8945312,0.890625 13.9726562,0.96875 13.9726562,1.06640625 L13.9726562,9.82421875 C13.9726562,9.921875 13.8945312,10 13.796875,10 L1.046875,10 C0.94921875,10 0.87109375,9.921875 0.87109375,9.82421875 L0.87109375,1.06640625 C0.87109375,0.96875 0.94921875,0.890625 1.046875,0.890625 L13.796875,0.890625 L13.796875,0.890625 Z M13.796875,0.01953125 L1.046875,0.01953125 C0.46875,0.01953125 0,0.48828125 0,1.06640625 L0,9.82421875 C0,10.4023438 0.46875,10.8710938 1.046875,10.8710938 L13.7929688,10.8710938 C14.3710938,10.8710938 14.8398438,10.4023438 14.8398438,9.82421875 L14.8398438,1.06640625 C14.84375,0.48828125 14.375,0.01953125 13.796875,0.01953125 L13.796875,0.01953125 L13.796875,0.01953125 Z"></path>
                                <path d="M10.28125,12.2421875 C10.4882812,12.2421875 10.6601562,12.4140625 10.6601562,12.625 L10.6601562,13.2617188 L10.28125,13.2617188 L8.08203125,13.2617188 L6.07421875,13.2617188 L3.87890625,13.2617188 L3.49609375,13.2617188 L3.49609375,12.625 C3.49609375,12.4140625 3.66796875,12.2421875 3.87890625,12.2421875 L10.28125,12.2421875 L10.28125,12.2421875 Z"></path>
                                <polygon id="Rectangle-path" points="2.18359375 6.1328125 4.8046875 6.1328125 4.8046875 8.75390625 2.18359375 8.75390625"></polygon>
                                <rect id="Rectangle-path" x="6.11328125" y="6.1328125" width="2.62109375" height="2.62109375"></rect>
                                <polygon id="Rectangle-path" points="10.0429688 2.203125 12.6640625 2.203125 12.6640625 4.82421875 10.0429688 4.82421875"></polygon>
                                <rect id="Rectangle-path" x="10.0429688" y="6.1328125" width="2.62109375" height="2.62109375"></rect>
                                <polygon id="Rectangle-path" points="2.18359375 2.203125 8.73046875 2.203125 8.73046875 4.82421875 2.18359375 4.82421875"></polygon>
                            </g>
                        </g>
                    </g>
                    <mask id="mask-2" fill="white">
                        <use xlink:href="#path-1"></use>
                    </mask>
                    <g id="Clip-6"></g>
                </g>
            </g>
        </g>
    </g>
</svg>