<?xml version="1.0" encoding="UTF-8"?>
<svg width="16px" height="16px" viewBox="0 0 16 16" version="1.1" xmlns="http://www.w3.org/2000/svg" xmlns:xlink="http://www.w3.org/1999/xlink">
    <!-- Generator: sketchtool 53.2 (72643) - https://sketchapp.com -->
    <title>693EFE72-6945-41F4-97EE-96DA1BA64844</title>
    <desc>Created with sketchtool.</desc>
    <g id="Page-1" stroke="none" stroke-width="1" fill="none" fill-rule="evenodd">
        <g id="Sales-leads" transform="translate(-102.000000, -13.000000)">
            <g id="menubar/desktop/default" transform="translate(0.000000, -1.000000)">
                <g id="Search" transform="translate(88.000000, 0.000000)">
                    <g id="icons/MagnifyingGlass/gray-700" transform="translate(12.000000, 12.000000)">
                        <g id="MagnifyingGlass">
                            <rect id="BoundingBox" x="0" y="0" width="20" height="20"></rect>
                            <g id="Shape" transform="translate(2.578125, 2.578125)" fill="#FFFFFF">
                                <path d="M5.26402344,1.49679688 C6.27027344,1.49679688 7.21632812,1.88867188 7.92785156,2.60023438 C9.39660156,4.06914063 9.39660156,6.45902344 7.92785156,7.92777344 C7.21628906,8.63933594 6.27027344,9.03121094 5.26402344,9.03121094 C4.25777344,9.03121094 3.31175781,8.63933594 2.60019531,7.92777344 C1.88863281,7.21636719 1.496875,6.2703125 1.496875,5.26410156 C1.496875,4.25789063 1.88863281,3.31179688 2.60019531,2.60027344 C3.31175781,1.88871094 4.25777344,1.49679688 5.26402344,1.49679688 L5.26402344,1.49679688 Z M5.26402344,0 C3.91691406,0 2.56976562,0.513945312 1.54191406,1.54199219 C-0.513867188,3.59757812 -0.513867188,6.93058594 1.54191406,8.98621094 C2.56964844,10.0141016 3.91675781,10.5280469 5.26402344,10.5280469 C6.61113281,10.5280469 7.95828125,10.0141406 8.98617187,8.98621094 C11.0419141,6.93046875 11.0419141,3.59757813 8.98617187,1.54199219 C7.95824219,0.513945312 6.61113281,0 5.26402344,0 L5.26402344,0 L5.26402344,0 Z"></path>
                                <path d="M14.7564453,13.509375 C14.8728125,13.6257422 14.8728125,13.8163281 14.7564453,13.9326953 L13.9328906,14.7565234 C13.8165234,14.8728906 13.6260938,14.8728906 13.5095703,14.7565234 L9.34164063,10.5885547 C9.22527344,10.4721875 9.22527344,10.2816406 9.34164063,10.1652734 L10.1653125,9.3415625 C10.2817969,9.22519531 10.4721094,9.22519531 10.5886328,9.3415625 L14.7564453,13.509375 L14.7564453,13.509375 Z"></path>
                            </g>
                        </g>
                    </g>
                </g>
            </g>
        </g>
    </g>
</svg>