<?xml version="1.0" encoding="UTF-8"?>
<svg width="12px" height="16px" viewBox="0 0 12 16" version="1.1" xmlns="http://www.w3.org/2000/svg" xmlns:xlink="http://www.w3.org/1999/xlink">
    <!-- Generator: sketchtool 53.2 (72643) - https://sketchapp.com -->
    <title>75697B31-65FD-47A8-AF51-BFDB62EC8EB2</title>
    <desc>Created with sketchtool.</desc>
    <g id="Page-1" stroke="none" stroke-width="1" fill="none" fill-rule="evenodd">
        <g id="Sales-leads" transform="translate(-1412.000000, -13.000000)">
            <g id="menubar/desktop/default" transform="translate(0.000000, -1.000000)">
                <g id="User" transform="translate(1396.000000, 0.000000)">
                    <rect id="Rectangle-5" x="0" y="0" width="44" height="44"></rect>
                    <g id="icons/user/white" transform="translate(12.000000, 12.000000)">
                        <g id="User">
                            <rect id="BoundingBox" x="0" y="0" width="20" height="20"></rect>
                            <g id="Shape" transform="translate(4.062500, 2.578125)" fill="#FFFFFF">
                                <path d="M2.26191406,3.67527344 C2.26191406,1.64527344 3.90777344,0 5.9375,0 C7.96722656,0 9.61308594,1.64527344 9.61308594,3.67527344 C9.61308594,5.705 7.96722656,7.35054687 5.9375,7.35054687 C3.90777344,7.35054687 2.26191406,5.705 2.26191406,3.67527344 L2.26191406,3.67527344 Z"></path>
                                <path d="M11.8399219,9.45679688 C11.8176172,8.73578125 11.2276172,8.15796875 10.5014063,8.15796875 L1.37363281,8.15796875 C0.647382812,8.15796875 0.0573828125,8.73578125 0.035078125,9.45679688 L0.0330078125,9.45679688 L0.0330078125,13.5032031 C0.0330078125,14.2436328 0.633125,14.84375 1.37359375,14.84375 L2.71445312,14.84375 L2.71445312,12.3371094 L3.01132812,12.3371094 L3.01132812,14.84375 L8.86332031,14.84375 L8.86332031,12.3371094 L9.16023437,12.3371094 L9.16023437,14.84375 L10.5014063,14.84375 C11.2418359,14.84375 11.8419531,14.2436328 11.8419531,13.5032031 L11.8419531,9.45679688 L11.8399219,9.45679688 L11.8399219,9.45679688 Z"></path>
                            </g>
                        </g>
                    </g>
                </g>
            </g>
        </g>
    </g>
</svg>